# Blender 5.2.0 LTS
# www.blender.org
o lightbulb
v -0.023523 -0.539244 0.119523
v -0.023523 -0.354652 0.119523
v -0.046142 -0.539244 0.112661
v -0.046142 -0.354652 0.112661
v -0.066988 -0.539244 0.101519
v -0.066988 -0.354652 0.101519
v -0.085259 -0.539244 0.086524
v -0.085259 -0.354652 0.086524
v -0.100254 -0.539244 0.068252
v -0.100254 -0.354652 0.068252
v -0.111397 -0.539244 0.047407
v -0.111397 -0.354652 0.047407
v -0.118258 -0.539244 0.024788
v -0.118258 -0.354652 0.024788
v -0.118258 -0.539244 -0.022258
v -0.118258 -0.354652 -0.022258
v -0.111397 -0.539244 -0.044877
v -0.111397 -0.354652 -0.044877
v -0.100254 -0.539244 -0.065723
v -0.100254 -0.354652 -0.065723
v -0.085259 -0.539244 -0.083995
v -0.085259 -0.354652 -0.083995
v -0.066988 -0.539244 -0.098990
v -0.066988 -0.354652 -0.098990
v -0.046142 -0.539244 -0.110132
v -0.046142 -0.354652 -0.110132
v -0.023523 -0.539244 -0.116993
v -0.023523 -0.354652 -0.116993
v 0.000000 -0.539244 -0.119310
v 0.000000 -0.354652 -0.119310
v 0.023523 -0.539244 -0.116993
v 0.023523 -0.354652 -0.116993
v 0.046142 -0.539244 -0.110132
v 0.046142 -0.354652 -0.110132
v 0.066988 -0.539244 -0.098990
v 0.066988 -0.354652 -0.098990
v 0.085259 -0.539244 -0.083995
v 0.085259 -0.354652 -0.083995
v 0.100254 -0.539244 -0.065723
v 0.100254 -0.354652 -0.065723
v 0.111397 -0.539244 -0.044877
v 0.111397 -0.354652 -0.044877
v 0.118258 -0.539244 -0.022258
v 0.118258 -0.354652 -0.022258
v 0.118258 -0.539244 0.024788
v 0.118258 -0.354652 0.024788
v 0.111397 -0.539244 0.047407
v 0.111397 -0.354652 0.047407
v 0.100254 -0.539244 0.068252
v 0.100254 -0.354652 0.068252
v 0.085259 -0.539244 0.086524
v 0.085259 -0.354652 0.086524
v 0.066988 -0.539244 0.101519
v 0.066988 -0.354652 0.101519
v 0.046142 -0.539244 0.112661
v 0.046142 -0.354652 0.112661
v 0.023523 -0.539244 0.119523
v 0.023523 -0.354652 0.119523
v -0.035265 -0.292160 0.177578
v -0.069175 -0.292160 0.167292
v -0.100426 -0.292160 0.150588
v -0.127818 -0.292160 0.128108
v -0.150298 -0.292160 0.100716
v -0.167002 -0.292160 0.069464
v -0.177289 -0.292160 0.035554
v -0.177289 -0.292160 -0.034975
v -0.150298 -0.292160 -0.100137
v -0.127818 -0.292160 -0.127529
v -0.100426 -0.292160 -0.150009
v -0.069175 -0.292160 -0.166713
v -0.035265 -0.292160 -0.176999
v 0.100426 -0.292160 -0.150009
v 0.127818 -0.292160 -0.127529
v 0.150298 -0.292160 -0.100137
v 0.177289 -0.292160 -0.034975
v 0.177289 -0.292160 0.035554
v 0.167002 -0.292160 0.069464
v 0.150298 -0.292160 0.100716
v 0.127818 -0.292160 0.128108
v 0.100426 -0.292160 0.150588
v 0.069175 -0.292160 0.167292
v -0.043840 0.428869 0.044130
v -0.057280 0.428869 0.024016
v -0.057280 0.428869 -0.023437
v -0.023726 0.428869 -0.056991
v 0.051551 0.428869 0.034735
v 0.060808 0.428869 0.012385
v 0.260108 0.287713 0.052028
v 0.317740 0.193300 0.063492
v 0.347298 0.091136 0.069371
v 0.347298 -0.013655 0.069371
v 0.317740 -0.115818 0.063492
v 0.260107 -0.210231 0.052028
v 0.057280 0.428869 0.024016
v 0.245016 -0.210231 0.101778
v 0.299305 -0.115818 0.124266
v 0.327148 -0.013655 0.135798
v 0.327148 0.091136 0.135799
v 0.299305 0.193300 0.124266
v 0.245016 0.287713 0.101778
v -0.043840 0.428869 -0.043551
v -0.187527 0.287713 -0.187238
v -0.229078 0.193300 -0.228789
v -0.250388 0.091136 -0.250098
v -0.250388 -0.013655 -0.250098
v -0.229078 -0.115818 -0.228788
v -0.187527 -0.210231 -0.187237
v -0.034445 0.428869 -0.051261
v -0.147339 -0.210231 -0.220219
v -0.179985 -0.115818 -0.269078
v -0.196728 -0.013655 -0.294135
v -0.196728 0.091136 -0.294135
v -0.179986 0.193300 -0.269078
v -0.147339 0.287713 -0.220219
v 0.220508 -0.210231 0.147629
v 0.269367 -0.115818 0.180275
v 0.294425 -0.013655 0.197018
v 0.294425 0.091136 0.197018
v 0.269367 0.193300 0.180275
v 0.220509 0.287713 0.147629
v -0.101489 -0.210231 -0.244726
v -0.123976 -0.115818 -0.299015
v -0.135509 -0.013655 -0.326858
v -0.135509 0.091136 -0.326858
v -0.123976 0.193300 -0.299015
v -0.101489 0.287713 -0.244726
v -0.012096 0.428869 0.061098
v -0.051739 -0.210231 0.260397
v -0.063202 -0.115818 0.318030
v -0.069082 -0.013655 0.347587
v -0.069082 0.091136 0.347587
v -0.063203 0.193300 0.318030
v -0.051739 0.287713 0.260397
v 0.043840 0.428869 0.044130
v 0.187527 -0.210231 0.187816
v 0.229078 -0.115818 0.229368
v 0.250388 -0.013655 0.250677
v 0.250388 0.091136 0.250677
v 0.229078 0.193300 0.229368
v 0.187527 0.287713 0.187817
v -0.012096 0.428869 -0.060519
v -0.051739 -0.210231 -0.259818
v -0.063202 -0.115818 -0.317451
v -0.069082 -0.013655 -0.347008
v -0.069082 0.091136 -0.347008
v -0.063203 0.193300 -0.317451
v -0.051739 0.287713 -0.259818
v -0.023726 0.428869 0.057570
v -0.101489 -0.210231 0.245305
v -0.123976 -0.115818 0.299594
v -0.135509 -0.013655 0.327437
v -0.135509 0.091136 0.327437
v -0.123976 0.193300 0.299594
v -0.101489 0.287713 0.245305
v 0.034445 0.428869 0.051840
v 0.147339 -0.210231 0.220798
v 0.179985 -0.115818 0.269657
v 0.196728 -0.013655 0.294715
v 0.196728 0.091136 0.294715
v 0.179985 0.193300 0.269657
v 0.147339 0.287713 0.220798
v 0.000000 -0.292160 -0.180473
v 0.000000 0.428869 -0.061710
v 0.000000 -0.210231 -0.264914
v -0.000000 -0.115818 -0.323676
v -0.000000 -0.013655 -0.353812
v -0.000000 0.091136 -0.353812
v -0.000000 0.193300 -0.323676
v -0.000000 0.287713 -0.264914
v -0.034445 0.428869 0.051840
v -0.147339 -0.210231 0.220798
v -0.179985 -0.115818 0.269657
v -0.196728 -0.013655 0.294715
v -0.196729 0.091136 0.294715
v -0.179986 0.193300 0.269657
v -0.147339 0.287713 0.220798
v 0.023726 0.428869 0.057570
v 0.101489 -0.210231 0.245305
v 0.123976 -0.115818 0.299594
v 0.135509 -0.013655 0.327437
v 0.135509 0.091136 0.327437
v 0.123976 0.193300 0.299594
v 0.101489 0.287713 0.245305
v 0.035265 -0.292160 -0.176999
v 0.012096 0.428869 -0.060519
v 0.051739 -0.210231 -0.259818
v 0.063202 -0.115818 -0.317451
v 0.069082 -0.013655 -0.347008
v 0.069082 0.091136 -0.347008
v 0.063202 0.193300 -0.317451
v 0.051739 0.287713 -0.259818
v -0.187527 -0.210231 0.187816
v -0.229078 -0.115818 0.229367
v -0.250388 -0.013655 0.250677
v -0.250388 0.091136 0.250677
v -0.229078 0.193300 0.229368
v -0.187527 0.287713 0.187817
v 0.035265 -0.292160 0.177578
v 0.012096 0.428869 0.061098
v 0.051739 -0.210231 0.260397
v 0.063202 -0.115818 0.318030
v 0.069082 -0.013655 0.347587
v 0.069082 0.091136 0.347588
v 0.063203 0.193300 0.318030
v 0.051739 0.287713 0.260397
v 0.069175 -0.292160 -0.166713
v 0.023726 0.428869 -0.056991
v 0.101489 -0.210231 -0.244726
v 0.123976 -0.115818 -0.299015
v 0.135509 -0.013655 -0.326858
v 0.135509 0.091136 -0.326858
v 0.123976 0.193300 -0.299015
v 0.101489 0.287713 -0.244726
v -0.051551 0.428869 0.034735
v -0.220508 -0.210231 0.147629
v -0.269367 -0.115818 0.180275
v -0.294425 -0.013655 0.197018
v -0.294425 0.091136 0.197018
v -0.269367 0.193300 0.180275
v -0.220509 0.287713 0.147629
v 0.034445 0.428869 -0.051261
v 0.147339 -0.210231 -0.220219
v 0.179985 -0.115818 -0.269078
v 0.196728 -0.013655 -0.294135
v 0.196728 0.091136 -0.294135
v 0.179985 0.193300 -0.269078
v 0.147339 0.287713 -0.220219
v -0.245016 -0.210231 0.101778
v -0.299305 -0.115818 0.124266
v -0.327147 -0.013655 0.135798
v -0.327148 0.091136 0.135799
v -0.299305 0.193300 0.124266
v -0.245016 0.287713 0.101778
v 0.043840 0.428869 -0.043551
v 0.187527 -0.210231 -0.187237
v 0.229078 -0.115818 -0.228788
v 0.250388 -0.013655 -0.250098
v 0.250388 0.091136 -0.250098
v 0.229078 0.193300 -0.228789
v 0.187527 0.287713 -0.187238
v -0.060808 0.428869 0.012385
v -0.260107 -0.210231 0.052028
v -0.317740 -0.115818 0.063492
v -0.347298 -0.013655 0.069371
v -0.347298 0.091136 0.069371
v -0.317740 0.193300 0.063492
v -0.260108 0.287713 0.052028
v 0.051551 0.428869 -0.034156
v 0.220508 -0.210231 -0.147049
v 0.269367 -0.115818 -0.179696
v 0.294425 -0.013655 -0.196439
v 0.294425 0.091136 -0.196439
v 0.269367 0.193300 -0.179696
v 0.220509 0.287713 -0.147050
v 0.167002 -0.292160 -0.068885
v 0.057280 0.428869 -0.023437
v 0.245016 -0.210231 -0.101199
v 0.299305 -0.115818 -0.123687
v 0.327148 -0.013655 -0.135219
v 0.327148 0.091136 -0.135219
v 0.299305 0.193300 -0.123687
v 0.245016 0.287713 -0.101199
v -0.060808 0.428869 -0.011806
v -0.260107 -0.210231 -0.051449
v -0.317740 -0.115818 -0.062913
v -0.347298 -0.013655 -0.068792
v -0.347298 0.091136 -0.068792
v -0.317740 0.193300 -0.062913
v -0.260108 0.287713 -0.051449
v 0.060808 0.428869 -0.011806
v 0.260107 -0.210231 -0.051449
v 0.317740 -0.115818 -0.062913
v 0.347298 -0.013655 -0.068792
v 0.347298 0.091136 -0.068792
v 0.317740 0.193300 -0.062913
v 0.260107 0.287713 -0.051449
v -0.167002 -0.292160 -0.068885
v -0.245016 -0.210231 -0.101199
v -0.299305 -0.115818 -0.123687
v -0.327147 -0.013655 -0.135219
v -0.327147 0.091136 -0.135219
v -0.299305 0.193300 -0.123687
v -0.245016 0.287713 -0.101199
v -0.051551 0.428869 -0.034156
v -0.220508 -0.210231 -0.147049
v -0.269367 -0.115818 -0.179696
v -0.294425 -0.013655 -0.196439
v -0.294425 0.091136 -0.196439
v -0.269367 0.193300 -0.179696
v -0.220509 0.287713 -0.147050
v -0.035265 0.369642 -0.176999
v -0.069175 0.369642 -0.166713
v -0.167003 0.369642 -0.068885
v -0.177289 0.369642 -0.034975
v -0.177289 0.369642 0.035555
v -0.167003 0.369642 0.069464
v -0.127818 0.369642 0.128108
v -0.100426 0.369642 0.150588
v 0.127818 0.369642 0.128108
v 0.150298 0.369642 0.100716
v -0.100426 0.369642 -0.150009
v -0.150298 0.369642 0.100716
v -0.150298 0.369642 -0.100137
v 0.167003 0.369642 0.069464
v -0.127818 0.369642 -0.127529
v 0.177289 0.369642 0.035555
v 0.177289 0.369642 -0.034975
v 0.167003 0.369642 -0.068885
v 0.150298 0.369642 -0.100137
v 0.127818 0.369642 -0.127529
v 0.100426 0.369642 -0.150009
v 0.069175 0.369642 -0.166713
v 0.035265 0.369642 0.177579
v 0.035265 0.369642 -0.176999
v 0.069175 0.369642 0.167292
v -0.000000 0.369642 -0.180473
v 0.100426 0.369642 0.150588
v -0.069175 0.369642 0.167292
v -0.035265 0.369642 0.177579
v -0.019080 0.415345 -0.095634
v -0.037428 0.415345 -0.090069
v -0.090358 0.415345 -0.037138
v -0.095924 0.415345 -0.018791
v -0.095924 0.415345 0.019370
v -0.090358 0.415345 0.037717
v -0.069157 0.415345 0.069447
v -0.054337 0.415345 0.081610
v 0.069157 0.415345 0.069447
v 0.081320 0.415345 0.054626
v -0.054337 0.415345 -0.081031
v -0.081320 0.415345 0.054626
v -0.081320 0.415345 -0.054047
v 0.090358 0.415345 0.037717
v -0.069157 0.415345 -0.068868
v 0.095924 0.415345 0.019370
v 0.095924 0.415345 -0.018791
v 0.090358 0.415345 -0.037138
v 0.081320 0.415345 -0.054047
v 0.069157 0.415345 -0.068868
v 0.054336 0.415345 -0.081031
v 0.037428 0.415345 -0.090069
v 0.019080 0.415345 0.096213
v 0.019080 0.415345 -0.095634
v 0.037428 0.415345 0.090648
v 0.000000 0.415345 -0.097514
v 0.054336 0.415345 0.081610
v -0.037428 0.415345 0.090648
v -0.019080 0.415345 0.096213
v -0.005666 0.435756 -0.028194
v -0.011114 0.435756 -0.026542
v -0.026831 0.435756 -0.010824
v -0.028484 0.435756 -0.005376
v -0.028484 0.435756 0.005955
v -0.026831 0.435756 0.011403
v -0.020536 0.435756 0.020825
v -0.016135 0.435756 0.024437
v 0.020536 0.435756 0.020825
v 0.024147 0.435756 0.016424
v -0.016135 0.435756 -0.023858
v -0.024147 0.435756 0.016424
v -0.024147 0.435756 -0.015845
v 0.026831 0.435756 0.011403
v -0.020536 0.435756 -0.020246
v 0.028484 0.435756 0.005955
v 0.028484 0.435756 -0.005376
v 0.026831 0.435756 -0.010824
v 0.024147 0.435756 -0.015845
v 0.020536 0.435756 -0.020246
v 0.016135 0.435756 -0.023858
v 0.011114 0.435756 -0.026542
v 0.005666 0.435756 0.028773
v 0.005666 0.435756 -0.028194
v 0.011114 0.435756 0.027121
v 0.000000 0.435756 -0.028752
v 0.016135 0.435756 0.024437
v -0.011114 0.435756 0.027121
v -0.005666 0.435756 0.028773
vn -0.1467 -0.0000 0.9892
vn -0.3827 -0.0000 0.9239
vn -0.5556 -0.0000 0.8315
vn -0.7071 -0.0000 0.7071
vn -0.8315 -0.0000 0.5556
vn -0.9239 -0.0000 0.3827
vn -0.9892 -0.0000 0.1467
vn 0.1039 -0.6873 0.7189
vn -0.1040 -0.7035 0.7031
vn -0.1039 -0.6873 0.7189
vn -0.9892 -0.0000 -0.1467
vn -0.9239 -0.0000 -0.3827
vn -0.8315 -0.0000 -0.5556
vn -0.7071 -0.0000 -0.7071
vn -0.5556 -0.0000 -0.8315
vn -0.3827 -0.0000 -0.9239
vn -0.1951 -0.0000 -0.9808
vn -0.0000 -0.0000 -1.0000
vn 0.1951 -0.0000 -0.9808
vn 0.3827 -0.0000 -0.9239
vn 0.5556 -0.0000 -0.8315
vn 0.7071 -0.0000 -0.7071
vn 0.8315 -0.0000 -0.5556
vn 0.9239 -0.0000 -0.3827
vn 0.9892 -0.0000 -0.1467
vn -0.7127 -0.6940 -0.1023
vn -0.7009 -0.7058 0.1033
vn -0.7000 -0.7066 -0.1038
vn 0.9892 -0.0000 0.1467
vn 0.9239 -0.0000 0.3827
vn 0.8315 -0.0000 0.5556
vn 0.7071 -0.0000 0.7071
vn 0.5556 -0.0000 0.8315
vn 0.3827 -0.0000 0.9239
vn 0.7127 -0.6940 -0.1023
vn 0.7009 -0.7058 0.1033
vn 0.7140 -0.6924 0.1042
vn 0.1467 -0.0000 0.9892
vn -0.0000 -1.0000 -0.0000
vn -0.6012 -0.6904 0.4023
vn -0.5020 -0.7044 0.5018
vn -0.5900 -0.7048 0.3940
vn -0.2738 -0.6990 -0.6606
vn -0.3919 -0.7086 -0.5868
vn -0.2699 -0.7088 -0.6517
vn -0.1344 0.4044 0.9046
vn 0.1147 0.6218 0.7748
vn -0.1147 0.6218 0.7747
vn 0.6636 -0.6959 -0.2744
vn 0.7000 -0.7066 -0.1038
vn -0.6636 -0.6959 -0.2744
vn -0.6530 -0.7074 -0.2707
vn 0.2738 -0.6990 -0.6606
vn 0.3919 -0.7086 -0.5868
vn 0.3978 -0.6985 -0.5948
vn 0.6012 -0.6904 0.4023
vn 0.5020 -0.7044 0.5018
vn 0.5118 -0.6895 0.5124
vn -0.6672 -0.6915 0.2769
vn -0.6550 -0.7053 0.2711
vn -0.7219 0.6240 -0.2990
vn -0.5967 0.7977 -0.0879
vn -0.5544 0.8000 -0.2296
vn -0.1395 -0.6994 -0.7010
vn -0.1375 -0.7090 -0.6917
vn -0.2774 -0.6883 0.6703
vn -0.2719 -0.7038 0.6563
vn -0.5965 -0.6969 -0.3981
vn -0.5872 -0.7078 -0.3926
vn 0.4991 -0.7083 -0.4993
vn 0.5068 -0.6978 -0.5062
vn 0.3947 -0.7040 0.5904
vn 0.4025 -0.6888 0.6029
vn -0.7140 -0.6924 0.1042
vn -0.0000 -0.6995 -0.7147
vn -0.0000 -0.7090 -0.7052
vn -0.4025 -0.6888 0.6029
vn -0.3947 -0.7040 0.5904
vn -0.5068 -0.6978 -0.5062
vn -0.4991 -0.7083 -0.4993
vn 0.5872 -0.7078 -0.3926
vn 0.5965 -0.6969 -0.3981
vn 0.6497 0.6240 -0.4341
vn 0.4243 0.8000 -0.4243
vn 0.4989 0.8000 -0.3334
vn 0.2719 -0.7038 0.6563
vn 0.2774 -0.6883 0.6703
vn 0.1375 -0.7090 -0.6917
vn 0.1395 -0.6994 -0.7010
vn 0.6550 -0.7053 0.2711
vn 0.6672 -0.6915 0.2769
vn -0.5118 -0.6895 0.5124
vn -0.3978 -0.6985 -0.5948
vn 0.6530 -0.7074 -0.2707
vn 0.1040 -0.7035 0.7031
vn 0.2699 -0.7088 -0.6517
vn -0.2626 0.9588 0.1088
vn -0.0908 0.9940 0.0607
vn -0.1009 0.9940 0.0418
vn -0.6461 0.4063 -0.6461
vn -0.6497 0.6240 -0.4341
vn -0.5525 0.6240 -0.5525
vn -0.8231 0.1417 -0.5500
vn -0.7598 0.4063 -0.5076
vn -0.7000 -0.1417 -0.7000
vn -0.7000 0.1417 -0.7000
vn -0.6461 -0.4063 -0.6461
vn -0.8231 -0.1417 -0.5500
vn -0.5525 -0.6240 -0.5525
vn -0.7598 -0.4063 -0.5076
vn -0.6497 -0.6240 -0.4341
vn -0.4989 0.8000 -0.3334
vn 0.9046 0.4044 0.1344
vn 0.7748 0.6218 -0.1147
vn 0.7747 0.6218 0.1147
vn 0.9792 0.1409 0.1459
vn 0.9047 0.4044 -0.1344
vn 0.9792 -0.1409 0.1459
vn 0.9792 0.1409 -0.1459
vn 0.9047 -0.4044 -0.1344
vn 0.9792 -0.1409 -0.1459
vn 0.7748 -0.6218 0.1147
vn 0.9046 -0.4044 0.1344
vn 0.7748 -0.6218 -0.1147
vn 0.4204 0.9052 -0.0618
vn 0.5544 0.8000 -0.2296
vn 0.3905 0.9063 -0.1617
vn -0.8442 0.4063 -0.3497
vn -0.9146 0.1417 -0.3788
vn -0.9146 -0.1417 -0.3788
vn -0.8442 -0.4063 -0.3497
vn 0.5967 0.7977 0.0879
vn 0.5967 0.7977 -0.0879
vn -0.7747 0.6218 -0.1147
vn -0.9046 0.4044 -0.1344
vn -0.9792 0.1409 -0.1459
vn -0.9047 -0.4044 -0.1344
vn -0.9792 -0.1409 -0.1459
vn -0.7219 -0.6240 -0.2990
vn -0.7748 -0.6218 -0.1147
vn 0.7219 0.6240 -0.2990
vn 0.8442 0.4063 -0.3497
vn 0.9146 -0.1417 -0.3788
vn 0.9146 0.1417 -0.3788
vn 0.7219 -0.6240 -0.2990
vn 0.8442 -0.4063 -0.3497
vn -0.7748 0.6218 0.1147
vn -0.9046 0.4044 0.1344
vn -0.9792 0.1409 0.1459
vn -0.9792 -0.1409 0.1459
vn -0.9046 -0.4044 0.1344
vn -0.7748 -0.6218 0.1147
vn -0.3514 0.9063 -0.2348
vn -0.3905 0.9063 -0.1617
vn 0.7598 0.4063 -0.5076
vn 0.8231 -0.1417 -0.5500
vn 0.8231 0.1417 -0.5500
vn 0.7598 -0.4063 -0.5077
vn 0.6497 -0.6240 -0.4341
vn -0.5967 0.7977 0.0879
vn 0.5525 0.6240 -0.5525
vn 0.6461 0.4063 -0.6461
vn 0.7000 0.1417 -0.7000
vn 0.7000 -0.1417 -0.7000
vn 0.6461 -0.4063 -0.6461
vn -0.7219 0.6240 0.2990
vn -0.5544 0.8000 0.2296
vn -0.8442 0.4063 0.3497
vn -0.9146 0.1417 0.3788
vn -0.8442 -0.4063 0.3497
vn -0.9146 -0.1417 0.3788
vn 0.3334 0.8000 -0.4989
vn 0.4341 0.6240 -0.6497
vn 0.5077 0.4063 -0.7598
vn 0.5500 -0.1417 -0.8231
vn 0.5500 0.1417 -0.8231
vn 0.4341 -0.6240 -0.6497
vn 0.5077 -0.4063 -0.7598
vn 0.5525 -0.6240 -0.5525
vn -0.4989 0.8000 0.3334
vn -0.6497 0.6240 0.4341
vn -0.8231 0.1417 0.5500
vn -0.7598 0.4063 0.5076
vn -0.7598 -0.4063 0.5077
vn -0.8231 -0.1417 0.5500
vn -0.7219 -0.6240 0.2990
vn 0.2296 0.8000 -0.5544
vn 0.2990 0.6240 -0.7219
vn 0.3788 0.1417 -0.9146
vn 0.3497 0.4063 -0.8442
vn 0.3497 -0.4063 -0.8442
vn 0.3788 -0.1417 -0.9146
vn 0.2990 -0.6240 -0.7219
vn -0.4243 0.8000 0.4243
vn -0.1459 0.1409 0.9792
vn 0.1344 0.4044 0.9046
vn -0.1459 -0.1409 0.9792
vn 0.1459 0.1409 0.9792
vn -0.1344 -0.4044 0.9047
vn 0.1459 -0.1409 0.9792
vn -0.1147 -0.6218 0.7748
vn 0.1344 -0.4044 0.9046
vn -0.2990 0.6240 -0.7219
vn -0.3334 0.8000 -0.4989
vn -0.2296 0.8000 -0.5544
vn -0.2989 0.9063 -0.2989
vn -0.4243 0.8000 -0.4243
vn -0.5525 0.6240 0.5525
vn -0.6461 0.4063 0.6461
vn -0.7000 0.1417 0.7000
vn -0.7000 -0.1417 0.7000
vn -0.6497 -0.6240 0.4341
vn -0.6461 -0.4063 0.6461
vn 0.1171 0.8000 -0.5885
vn 0.1524 0.6240 -0.7664
vn 0.1783 0.4063 -0.8962
vn 0.1931 0.1417 -0.9709
vn 0.1783 -0.4063 -0.8962
vn 0.1931 -0.1417 -0.9709
vn 0.1524 -0.6240 -0.7664
vn 0.0879 0.7977 0.5967
vn 0.2990 0.6240 0.7219
vn 0.2296 0.8000 0.5544
vn 0.3497 0.4063 0.8442
vn 0.3788 0.1417 0.9146
vn 0.3788 -0.1417 0.9146
vn 0.1147 -0.6218 0.7747
vn 0.3497 -0.4063 0.8442
vn 0.2990 -0.6240 0.7219
vn -0.3334 0.8000 0.4989
vn -0.4341 0.6240 0.6497
vn -0.5077 0.4063 0.7598
vn -0.5500 0.1417 0.8231
vn -0.5500 -0.1417 0.8231
vn -0.5525 -0.6240 0.5525
vn -0.5076 -0.4063 0.7598
vn -0.0000 0.6240 -0.7814
vn -0.0000 0.8000 -0.6000
vn -0.0000 0.4063 -0.9137
vn -0.0000 0.1417 -0.9899
vn -0.0000 -0.1417 -0.9899
vn -0.0000 -0.4063 -0.9137
vn -0.0000 -0.6240 -0.7814
vn 0.3334 0.8000 0.4989
vn 0.4341 0.6240 0.6497
vn 0.5076 0.4063 0.7598
vn 0.5500 0.1417 0.8231
vn 0.5500 -0.1417 0.8231
vn 0.4341 -0.6240 0.6497
vn 0.5076 -0.4063 0.7598
vn -0.2990 0.6240 0.7219
vn -0.2296 0.8000 0.5544
vn -0.3497 0.4063 0.8442
vn -0.3788 0.1417 0.9146
vn -0.3788 -0.1417 0.9146
vn -0.4341 -0.6240 0.6497
vn -0.3497 -0.4063 0.8442
vn -0.1171 0.8000 -0.5885
vn -0.1524 0.6240 -0.7664
vn -0.1783 0.4063 -0.8962
vn -0.1931 -0.1417 -0.9709
vn -0.1931 0.1417 -0.9709
vn -0.1524 -0.6240 -0.7664
vn -0.1783 -0.4063 -0.8962
vn 0.4243 0.8000 0.4243
vn 0.5525 0.6240 0.5525
vn 0.6461 0.4063 0.6461
vn 0.7000 0.1417 0.7000
vn 0.7000 -0.1417 0.7000
vn 0.6461 -0.4063 0.6461
vn -0.0879 0.7977 0.5967
vn -0.2990 -0.6240 0.7219
vn -0.3497 0.4063 -0.8442
vn -0.3788 -0.1417 -0.9146
vn -0.3788 0.1417 -0.9146
vn -0.3497 -0.4063 -0.8442
vn -0.2990 -0.6240 -0.7219
vn 0.4989 0.8000 0.3334
vn 0.6497 0.6240 0.4341
vn 0.7598 0.4063 0.5077
vn 0.8231 -0.1417 0.5500
vn 0.8231 0.1417 0.5500
vn 0.6497 -0.6240 0.4341
vn 0.7598 -0.4063 0.5077
vn 0.5900 -0.7048 0.3940
vn 0.5525 -0.6240 0.5525
vn -0.4341 0.6240 -0.6497
vn -0.5076 0.4063 -0.7598
vn -0.5500 0.1417 -0.8231
vn -0.5500 -0.1417 -0.8231
vn -0.5077 -0.4063 -0.7598
vn 0.7219 0.6240 0.2990
vn 0.5544 0.8000 0.2296
vn 0.8442 0.4063 0.3497
vn 0.9146 0.1417 0.3788
vn 0.8442 -0.4063 0.3497
vn 0.9146 -0.1417 0.3788
vn 0.7219 -0.6240 0.2990
vn -0.4341 -0.6240 -0.6497
vn -0.0825 0.9063 -0.4145
vn -0.1617 0.9063 -0.3905
vn -0.4204 0.9052 -0.0618
vn -0.4204 0.9052 0.0618
vn -0.3905 0.9063 0.1617
vn -0.2348 0.9063 0.3514
vn 0.2989 0.9063 0.2989
vn 0.3514 0.9063 0.2348
vn -0.2348 0.9063 -0.3514
vn -0.3514 0.9063 0.2348
vn -0.2989 0.9063 0.2989
vn 0.3905 0.9063 0.1617
vn 0.4204 0.9052 0.0618
vn 0.3514 0.9063 -0.2348
vn 0.2989 0.9063 -0.2989
vn 0.2348 0.9063 -0.3514
vn 0.1617 0.9063 -0.3905
vn 0.0825 0.9063 -0.4145
vn 0.0618 0.9052 0.4204
vn 0.1617 0.9063 0.3905
vn -0.0000 0.9063 -0.4227
vn 0.2348 0.9063 0.3514
vn -0.1617 0.9063 0.3905
vn -0.0618 0.9052 0.4204
vn -0.2838 0.9580 -0.0415
vn -0.2838 0.9580 0.0415
vn 0.2838 0.9580 0.0415
vn 0.2838 0.9580 -0.0415
vn -0.0415 0.9580 0.2838
vn 0.0415 0.9580 0.2838
vn -0.0555 0.9588 -0.2788
vn -0.1088 0.9588 -0.2626
vn -0.1579 0.9588 0.2363
vn 0.2010 0.9588 0.2010
vn 0.2363 0.9588 0.1579
vn -0.1579 0.9588 -0.2363
vn -0.1114 0.9936 -0.0159
vn -0.2363 0.9588 0.1579
vn -0.2010 0.9588 0.2010
vn -0.2363 0.9588 -0.1579
vn -0.2626 0.9588 -0.1088
vn 0.2626 0.9588 0.1088
vn 0.1114 0.9937 0.0159
vn 0.2626 0.9588 -0.1088
vn 0.2363 0.9588 -0.1579
vn 0.2010 0.9588 -0.2010
vn 0.1579 0.9588 -0.2363
vn 0.1088 0.9588 -0.2626
vn -0.0159 0.9937 0.1114
vn 0.0555 0.9588 -0.2788
vn 0.1088 0.9588 0.2626
vn -0.0000 0.9588 -0.2842
vn 0.1579 0.9588 0.2363
vn -0.1088 0.9588 0.2626
vn -0.2010 0.9588 -0.2010
vn 0.0159 0.9937 0.1114
vn 0.1009 0.9940 -0.0418
vn -0.0418 0.9940 -0.1009
vn 0.0213 0.9940 -0.1071
vn 0.0418 0.9940 -0.1009
vn -0.0772 0.9940 0.0772
vn 0.0418 0.9940 0.1009
vn -0.0908 0.9940 -0.0606
vn 0.0908 0.9940 0.0607
vn -0.0606 0.9940 0.0908
vn -0.0772 0.9940 -0.0772
vn -0.0000 0.9940 -0.1092
vn -0.0213 0.9940 -0.1071
vn 0.0772 0.9940 0.0772
vn 0.0607 0.9940 0.0908
vn -0.1009 0.9940 -0.0418
vn -0.0418 0.9940 0.1009
vn 0.1114 0.9937 -0.0159
vn -0.1114 0.9937 0.0159
vn -0.0606 0.9940 -0.0908
vn 0.0908 0.9940 -0.0606
vn 0.1008 0.9940 0.0418
vn 0.0772 0.9940 -0.0772
vn 0.0607 0.9940 -0.0908
vt 0.783371 0.190299
vt 0.760811 0.004631
vt 0.783371 0.004631
vt 0.760811 0.190299
vt 0.738155 0.004631
vt 0.738155 0.190299
vt 0.715354 0.004631
vt 0.715354 0.190299
vt 0.692366 0.004631
vt 0.692366 0.190299
vt 0.669148 0.004631
vt 0.669148 0.190299
vt 0.645663 0.004631
vt 0.828395 0.190299
vt 0.782762 0.253156
vt 0.597778 0.190299
vt 0.573344 0.004631
vt 0.597778 0.004631
vt 0.573344 0.190299
vt 0.548582 0.004631
vt 0.548582 0.190299
vt 0.523509 0.004631
vt 0.523509 0.190299
vt 0.498160 0.004631
vt 0.498160 0.190299
vt 0.472584 0.004631
vt 0.472584 0.190299
vt 0.446849 0.004631
vt 0.446849 0.190299
vt 0.421031 0.004631
vt 0.421031 0.190299
vt 0.395212 0.004631
vt 0.395212 0.190299
vt 0.369477 0.004631
vt 0.369477 0.190299
vt 0.343902 0.004631
vt 0.343902 0.190299
vt 0.318552 0.004631
vt 0.318552 0.190299
vt 0.293479 0.004631
vt 0.293479 0.190299
vt 0.268717 0.004631
vt 0.268717 0.190299
vt 0.244284 0.004631
vt 0.642341 0.253156
vt 0.594311 0.253156
vt 0.196399 0.190299
vt 0.172914 0.004631
vt 0.196399 0.004631
vt 0.172914 0.190299
vt 0.149696 0.004631
vt 0.149696 0.190299
vt 0.126707 0.004631
vt 0.126707 0.190299
vt 0.103907 0.004631
vt 0.103907 0.190299
vt 0.081250 0.004631
vt 0.244284 0.190299
vt 0.199721 0.253156
vt 0.081250 0.190299
vt 0.058690 0.004631
vt 0.713083 0.253156
vt 0.689654 0.253156
vt 0.496046 0.253156
vt 0.471112 0.253156
vt 0.782359 0.741447
vt 0.829293 0.836411
vt 0.782473 0.836411
vt 0.247751 0.253156
vt 0.570009 0.253156
vt 0.346016 0.253156
vt 0.128978 0.253156
vt 0.666080 0.253156
vt 0.568511 0.836411
vt 0.594311 0.918818
vt 0.570009 0.918818
vt 0.446093 0.253156
vt 0.759608 0.253156
vt 0.545520 0.253156
vt 0.321203 0.253156
vt 0.105669 0.253156
vt 0.645663 0.190299
vt 0.421031 0.253156
vt 0.736392 0.253156
vt 0.520858 0.253156
vt 0.296541 0.253156
vt 0.297906 0.836411
vt 0.321203 0.918818
vt 0.296541 0.918818
vt 0.082453 0.253156
vt 0.395968 0.253156
vt 0.175982 0.253156
vt 0.272053 0.253156
vt 0.059300 0.253156
vt 0.058690 0.190299
vt 0.370950 0.253156
vt 0.674316 0.978391
vt 0.707910 0.985318
vt 0.687226 0.985318
vt 0.519235 0.741447
vt 0.544155 0.836411
vt 0.519685 0.836411
vt 0.543429 0.638688
vt 0.543630 0.741447
vt 0.519063 0.533286
vt 0.519063 0.638688
vt 0.519235 0.430527
vt 0.543429 0.533286
vt 0.519685 0.335563
vt 0.543630 0.430527
vt 0.544155 0.335563
vt 0.545520 0.918818
vt 0.201846 0.741447
vt 0.249321 0.836411
vt 0.201250 0.836411
vt 0.202075 0.638688
vt 0.249928 0.741447
vt 0.202075 0.533286
vt 0.250162 0.638688
vt 0.249928 0.430527
vt 0.250162 0.533286
vt 0.201250 0.335563
vt 0.201846 0.430527
vt 0.249321 0.335563
vt 0.243538 0.964788
vt 0.272053 0.918818
vt 0.267995 0.964788
vt 0.567933 0.741447
vt 0.567711 0.638688
vt 0.567711 0.533286
vt 0.567933 0.430527
vt 0.199721 0.918818
vt 0.247751 0.918818
vt 0.592741 0.836411
vt 0.592133 0.741447
vt 0.591900 0.638688
vt 0.592133 0.430527
vt 0.591900 0.533286
vt 0.568511 0.335563
vt 0.592741 0.335563
vt 0.273551 0.836411
vt 0.274129 0.741447
vt 0.274350 0.533286
vt 0.274350 0.638688
vt 0.273551 0.335563
vt 0.274129 0.430527
vt 0.640812 0.836411
vt 0.640216 0.741447
vt 0.639986 0.638688
vt 0.639986 0.533286
vt 0.640216 0.430527
vt 0.640812 0.335563
vt 0.549250 0.964788
vt 0.574067 0.964788
vt 0.298431 0.741447
vt 0.298632 0.533286
vt 0.298632 0.638688
vt 0.298431 0.430527
vt 0.297906 0.335563
vt 0.642341 0.918818
vt 0.322377 0.836411
vt 0.322827 0.741447
vt 0.322998 0.638688
vt 0.322998 0.533286
vt 0.322827 0.430527
vt 0.664658 0.836411
vt 0.666080 0.918818
vt 0.664101 0.741447
vt 0.663887 0.638688
vt 0.664101 0.430527
vt 0.663887 0.533286
vt 0.346016 0.918818
vt 0.346946 0.836411
vt 0.347302 0.741447
vt 0.347438 0.533286
vt 0.347438 0.638688
vt 0.346946 0.335563
vt 0.347302 0.430527
vt 0.322377 0.335563
vt 0.689654 0.918818
vt 0.688388 0.836411
vt 0.687701 0.638688
vt 0.687892 0.741447
vt 0.687892 0.430527
vt 0.687701 0.533286
vt 0.664658 0.335563
vt 0.370950 0.918818
vt 0.371595 0.836411
vt 0.371935 0.638688
vt 0.371841 0.741447
vt 0.371841 0.430527
vt 0.371935 0.533286
vt 0.371595 0.335563
vt 0.713083 0.918818
vt 0.782315 0.638688
vt 0.829407 0.741447
vt 0.782315 0.533286
vt 0.829452 0.638688
vt 0.782359 0.430527
vt 0.829452 0.533286
vt 0.782473 0.335563
vt 0.829407 0.430527
vt 0.829004 0.253156
vt 0.470467 0.836411
vt 0.496046 0.918818
vt 0.471112 0.918818
vt 0.524091 0.964788
vt 0.520858 0.918818
vt 0.712017 0.836411
vt 0.711599 0.741447
vt 0.711437 0.638688
vt 0.711437 0.533286
vt 0.688388 0.335563
vt 0.711599 0.430527
vt 0.395968 0.918818
vt 0.396299 0.836411
vt 0.396425 0.741447
vt 0.396473 0.638688
vt 0.396425 0.430527
vt 0.396473 0.533286
vt 0.396299 0.335563
vt 0.059300 0.918818
vt 0.083022 0.836411
vt 0.082453 0.918818
vt 0.059589 0.836411
vt 0.083246 0.741447
vt 0.059703 0.741447
vt 0.083333 0.638688
vt 0.059747 0.533286
vt 0.059747 0.638688
vt 0.059703 0.430527
vt 0.083333 0.533286
vt 0.059589 0.335563
vt 0.083246 0.430527
vt 0.083022 0.335563
vt 0.736392 0.918818
vt 0.735562 0.836411
vt 0.735234 0.741447
vt 0.735108 0.638688
vt 0.735108 0.533286
vt 0.712017 0.335563
vt 0.735234 0.430527
vt 0.421031 0.836411
vt 0.421031 0.918818
vt 0.421031 0.741447
vt 0.421031 0.638688
vt 0.421031 0.533286
vt 0.421031 0.430527
vt 0.421031 0.335563
vt 0.105669 0.918818
vt 0.106500 0.836411
vt 0.106827 0.741447
vt 0.106954 0.638688
vt 0.106954 0.533286
vt 0.106500 0.335563
vt 0.106827 0.430527
vt 0.759040 0.836411
vt 0.759608 0.918818
vt 0.758815 0.741447
vt 0.758729 0.638688
vt 0.758729 0.533286
vt 0.735562 0.335563
vt 0.758815 0.430527
vt 0.446093 0.918818
vt 0.445763 0.836411
vt 0.445637 0.741447
vt 0.445589 0.533286
vt 0.445589 0.638688
vt 0.445763 0.335563
vt 0.445637 0.430527
vt 0.128978 0.918818
vt 0.130044 0.836411
vt 0.130463 0.741447
vt 0.130625 0.638688
vt 0.130625 0.533286
vt 0.130463 0.430527
vt 0.782762 0.918818
vt 0.759040 0.335563
vt 0.470220 0.741447
vt 0.470126 0.533286
vt 0.470126 0.638688
vt 0.470220 0.430527
vt 0.470467 0.335563
vt 0.152408 0.918818
vt 0.153673 0.836411
vt 0.154170 0.741447
vt 0.154361 0.533286
vt 0.154361 0.638688
vt 0.153673 0.335563
vt 0.154170 0.430527
vt 0.152408 0.253156
vt 0.130044 0.335563
vt 0.829004 0.918818
vt 0.495115 0.836411
vt 0.494760 0.741447
vt 0.494624 0.638688
vt 0.494624 0.533286
vt 0.494760 0.430527
vt 0.177404 0.836411
vt 0.175982 0.918818
vt 0.177960 0.741447
vt 0.178174 0.638688
vt 0.177960 0.430527
vt 0.178174 0.533286
vt 0.177404 0.335563
vt 0.495115 0.335563
vt 0.447017 0.964788
vt 0.472910 0.964788
vt 0.598523 0.964788
vt 0.646368 0.964788
vt 0.669795 0.964788
vt 0.738521 0.964788
vt 0.126233 0.964788
vt 0.149126 0.964788
vt 0.498626 0.964788
vt 0.692935 0.964788
vt 0.715829 0.964788
vt 0.172266 0.964788
vt 0.195694 0.964788
vt 0.292812 0.964788
vt 0.317971 0.964788
vt 0.343436 0.964788
vt 0.369151 0.964788
vt 0.395045 0.964788
vt 0.058564 0.964788
vt 0.081001 0.964788
vt 0.421031 0.964788
vt 0.103540 0.964788
vt 0.761061 0.964788
vt 0.783498 0.964788
vt 0.828268 0.964788
vt 0.603873 0.978391
vt 0.651333 0.978391
vt 0.190729 0.978391
vt 0.238188 0.978391
vt 0.784361 0.978391
vt 0.827405 0.978391
vt 0.448279 0.978391
vt 0.475353 0.978391
vt 0.741039 0.978391
vt 0.122961 0.978391
vt 0.145179 0.978391
vt 0.502096 0.978391
vt 0.620600 0.985318
vt 0.696883 0.978391
vt 0.719101 0.978391
vt 0.554136 0.978391
vt 0.579302 0.978391
vt 0.167745 0.978391
vt 0.176174 0.985318
vt 0.262760 0.978391
vt 0.287926 0.978391
vt 0.313676 0.978391
vt 0.339965 0.978391
vt 0.366709 0.978391
vt 0.786661 0.985318
vt 0.393783 0.978391
vt 0.079292 0.978391
vt 0.421031 0.978391
vt 0.101022 0.978391
vt 0.762769 0.978391
vt 0.528386 0.978391
vt 0.825104 0.985318
vt 0.245774 0.985318
vt 0.484483 0.985318
vt 0.388975 0.985318
vt 0.357579 0.985318
vt 0.728079 0.985318
vt 0.057701 0.978391
vt 0.074711 0.985318
vt 0.055400 0.985318
vt 0.570618 0.985318
vt 0.134151 0.985318
vt 0.747856 0.985318
vt 0.543443 0.985318
vt 0.421031 0.985318
vt 0.453087 0.985318
vt 0.113982 0.985318
vt 0.094205 0.985318
vt 0.596288 0.985318
vt 0.767350 0.985318
vt 0.221461 0.985318
vt 0.665888 0.985318
vt 0.514702 0.985318
vt 0.271443 0.985318
vt 0.154835 0.985318
vt 0.298618 0.985318
vt 0.327360 0.985318
vt 0.828395 0.004631
vt 0.966103 0.004631
vt 0.942618 0.004631
vt 0.919400 0.004631
vt 0.896412 0.004631
vt 0.873612 0.004631
vt 0.850955 0.004631
vt 0.829293 0.335563
vt 0.844416 0.985318
vt 0.863910 0.985318
vt 0.883687 0.985318
vt 0.903856 0.985318
vt 0.924540 0.985318
vt 0.945878 0.985318
s 1
f 2/1/1 3/2/2 1/3/1
f 4/4/2 5/5/3 3/2/2
f 6/6/3 7/7/4 5/5/3
f 8/8/4 9/9/5 7/7/4
f 10/10/5 11/11/6 9/9/5
f 12/12/6 13/13/7 11/11/6
f 58/14/8 59/15/9 2/1/10
f 16/16/11 17/17/12 15/18/11
f 18/19/12 19/20/13 17/17/12
f 20/21/13 21/22/14 19/20/13
f 22/23/14 23/24/15 21/22/14
f 24/25/15 25/26/16 23/24/15
f 26/27/16 27/28/17 25/26/16
f 28/29/17 29/30/18 27/28/17
f 30/31/18 31/32/19 29/30/18
f 32/33/19 33/34/20 31/32/19
f 34/35/20 35/36/21 33/34/20
f 36/37/21 37/38/22 35/36/21
f 38/39/22 39/40/23 37/38/22
f 40/41/23 41/42/24 39/40/23
f 42/43/24 43/44/25 41/42/24
f 16/16/26 65/45/27 66/46/28
f 46/47/29 47/48/30 45/49/29
f 48/50/30 49/51/31 47/48/30
f 50/52/31 51/53/32 49/51/31
f 52/54/32 53/55/33 51/53/32
f 54/56/33 55/57/34 53/55/33
f 44/58/35 76/59/36 46/47/37
f 56/60/34 57/61/38 55/57/34
f 3/2/39 19/20/39 35/36/39
f 10/10/40 62/62/41 63/63/42
f 26/27/43 69/64/44 70/65/45
f 132/66/46 205/67/47 133/68/48
f 42/43/49 75/69/50 44/58/35
f 18/19/51 66/46/28 277/70/52
f 34/35/53 72/71/54 36/37/55
f 50/52/56 79/72/57 52/54/58
f 12/12/59 63/63/42 64/73/60
f 283/74/61 294/75/62 293/76/63
f 28/29/64 70/65/45 71/77/65
f 4/4/66 59/15/9 60/78/67
f 20/21/68 277/70/52 67/79/69
f 36/37/55 73/80/70 38/39/71
f 52/54/58 80/81/72 54/56/73
f 14/82/74 64/73/60 65/45/27
f 30/31/75 71/77/65 162/83/76
f 6/6/77 60/78/67 61/84/78
f 22/23/79 67/79/69 68/85/80
f 38/39/71 74/86/81 40/41/82
f 254/87/83 310/88/84 309/89/85
f 54/56/73 81/90/86 56/60/87
f 30/31/75 184/91/88 32/33/89
f 46/47/37 77/92/90 48/50/91
f 8/8/92 61/84/78 62/62/41
f 24/25/93 68/85/80 69/64/44
f 40/41/82 255/93/94 42/43/49
f 56/60/87 198/94/95 58/95/8
f 32/33/89 206/96/96 34/35/53
f 83/97/97 360/98/98 354/99/99
f 103/100/100 290/101/101 102/102/102
f 103/100/100 288/103/103 289/104/104
f 105/105/105 288/103/103 104/106/106
f 106/107/107 287/108/108 105/105/105
f 107/109/109 286/110/110 106/107/107
f 68/85/80 285/111/111 107/109/109
f 303/112/112 283/74/61 293/76/63
f 89/113/113 276/114/114 88/115/115
f 90/116/116 275/117/117 89/113/113
f 91/118/118 274/119/119 90/116/116
f 91/118/118 272/120/120 273/121/121
f 93/122/122 272/120/120 92/123/123
f 271/124/124 76/59/36 75/69/50
f 336/125/125 308/126/126 337/127/127
f 290/101/101 282/128/128 283/74/61
f 288/103/103 282/128/128 289/104/104
f 287/108/108 281/129/129 288/103/103
f 286/110/110 280/130/130 287/108/108
f 285/111/111 279/131/131 286/110/110
f 277/70/52 285/111/111 67/79/69
f 306/132/132 276/114/114 307/133/133
f 282/128/128 269/134/134 283/74/61
f 281/129/129 268/135/135 282/128/128
f 280/130/130 267/136/136 281/129/129
f 280/130/130 265/137/137 266/138/138
f 278/139/139 265/137/137 279/131/131
f 277/70/52 264/140/140 278/139/139
f 276/114/114 308/126/126 307/133/133
f 275/117/117 262/141/141 276/114/114
f 274/119/119 261/142/142 275/117/117
f 274/119/119 259/143/143 260/144/144
f 272/120/120 259/143/143 273/121/121
f 272/120/120 257/145/145 258/146/146
f 255/93/94 271/124/124 75/69/50
f 262/141/141 309/89/85 308/126/126
f 268/135/135 247/147/147 269/134/134
f 267/136/136 246/148/148 268/135/135
f 266/138/138 245/149/149 267/136/136
f 265/137/137 244/150/150 266/138/138
f 264/140/140 243/151/151 265/137/137
f 264/140/140 65/45/27 242/152/152
f 332/153/153 293/76/63 322/154/154
f 261/142/142 254/87/83 262/141/141
f 260/144/144 253/155/155 261/142/142
f 260/144/144 251/156/156 252/157/157
f 258/146/146 251/156/156 259/143/143
f 257/145/145 250/158/158 258/146/146
f 255/93/94 249/159/159 257/145/145
f 294/75/62 247/147/147 295/160/160
f 253/155/155 240/161/161 254/87/83
f 252/157/157 239/162/162 253/155/155
f 251/156/156 238/163/163 252/157/157
f 250/158/158 237/164/164 251/156/156
f 249/159/159 236/165/165 250/158/158
f 73/80/70 249/159/159 74/86/81
f 295/160/160 233/166/166 296/167/167
f 247/147/147 232/168/168 233/166/166
f 246/148/148 231/169/169 232/168/168
f 244/150/150 231/169/169 245/149/149
f 244/150/150 229/170/170 230/171/171
f 242/152/152 229/170/170 243/151/151
f 64/73/60 242/152/152 65/45/27
f 240/161/161 311/172/172 310/88/84
f 239/162/162 227/173/173 240/161/161
f 238/163/163 226/174/174 239/162/162
f 238/163/163 224/175/175 225/176/176
f 236/165/165 224/175/175 237/164/164
f 236/165/165 222/177/177 223/178/178
f 73/80/70 222/177/177 235/179/179
f 233/166/166 302/180/180 296/167/167
f 232/168/168 220/181/181 233/166/166
f 232/168/168 218/182/182 219/183/183
f 230/171/171 218/182/182 231/169/169
f 230/171/171 216/184/184 217/185/185
f 228/186/186 216/184/184 229/170/170
f 63/63/42 228/186/186 64/73/60
f 227/173/173 312/187/187 311/172/172
f 226/174/174 213/188/188 227/173/173
f 226/174/174 211/189/189 212/190/190
f 224/175/175 211/189/189 225/176/176
f 224/175/175 209/191/191 210/192/192
f 223/178/178 208/193/193 209/191/191
f 206/96/96 222/177/177 72/71/54
f 220/181/181 297/194/194 302/180/180
f 131/195/195 204/196/196 132/66/46
f 130/197/197 203/198/198 131/195/195
f 129/199/199 202/200/200 130/197/197
f 128/201/201 201/202/202 129/199/199
f 198/203/95 128/201/201 59/15/9
f 126/204/203 301/205/204 292/206/205
f 334/207/206 301/205/204 305/208/207
f 219/183/183 197/209/208 220/181/181
f 218/182/182 196/210/209 219/183/183
f 217/185/185 195/211/210 218/182/182
f 216/184/184 194/212/211 217/185/185
f 215/213/212 193/214/213 216/184/184
f 62/62/41 215/213/212 63/63/42
f 213/188/188 314/215/214 312/187/187
f 212/190/190 191/216/215 213/188/188
f 211/189/189 190/217/216 212/190/190
f 210/192/192 189/218/217 211/189/189
f 210/192/192 187/219/218 188/220/219
f 208/193/193 187/219/218 209/191/191
f 206/96/96 186/221/220 208/193/193
f 313/222/221 183/223/222 315/224/223
f 205/225/47 182/226/224 183/223/222
f 204/227/196 181/228/225 182/226/224
f 202/229/200 181/228/225 203/230/198
f 201/231/202 180/232/226 202/229/200
f 200/233/227 179/234/228 201/231/202
f 198/94/95 178/235/229 200/233/227
f 197/209/208 298/236/230 297/194/194
f 196/210/209 176/237/231 197/209/208
f 195/211/210 175/238/232 196/210/209
f 194/212/211 174/239/233 195/211/210
f 193/214/213 173/240/234 194/212/211
f 192/241/235 172/242/236 193/214/213
f 61/84/78 192/241/235 62/62/41
f 314/215/214 169/243/237 316/244/238
f 191/216/215 168/245/239 169/243/237
f 190/217/216 167/246/240 168/245/239
f 189/218/217 166/247/241 167/246/240
f 188/220/219 165/248/242 166/247/241
f 187/219/218 164/249/243 165/248/242
f 184/91/88 164/249/243 186/221/220
f 183/223/222 317/250/244 315/224/223
f 182/226/224 161/251/245 183/223/222
f 181/228/225 160/252/246 182/226/224
f 180/232/226 159/253/247 181/228/225
f 179/234/228 158/254/248 180/232/226
f 179/234/228 156/255/249 157/256/250
f 80/81/72 178/235/229 81/90/86
f 298/236/230 154/257/251 318/258/252
f 176/237/231 153/259/253 154/257/251
f 174/239/233 153/259/253 175/238/232
f 173/240/234 152/260/254 174/239/233
f 172/242/236 151/261/255 173/240/234
f 171/262/256 150/263/257 172/242/236
f 60/78/67 171/262/256 61/84/78
f 169/243/237 291/264/258 316/244/238
f 168/245/239 147/265/259 169/243/237
f 167/246/240 146/266/260 168/245/239
f 167/246/240 144/267/261 145/268/262
f 165/248/242 144/267/261 166/247/241
f 165/248/242 142/269/263 143/270/264
f 164/249/243 71/77/65 142/269/263
f 161/251/245 299/271/265 317/250/244
f 160/252/246 140/272/266 161/251/245
f 159/253/247 139/273/267 160/252/246
f 158/254/248 138/274/268 159/253/247
f 157/256/250 137/275/269 158/254/248
f 156/255/249 136/276/270 157/256/250
f 79/72/57 156/255/249 80/81/72
f 154/257/251 319/277/271 318/258/252
f 154/257/251 132/66/46 133/68/48
f 152/260/254 132/66/46 153/259/253
f 151/261/255 131/195/195 152/260/254
f 150/263/257 130/197/197 151/261/255
f 149/278/272 129/199/199 150/263/257
f 60/78/67 128/201/201 149/278/272
f 291/264/258 126/204/203 292/206/205
f 147/265/259 125/279/273 126/204/203
f 145/268/262 125/279/273 146/266/260
f 145/268/262 123/280/274 124/281/275
f 143/270/264 123/280/274 144/267/261
f 142/269/263 122/282/276 143/270/264
f 71/77/65 121/283/277 142/269/263
f 140/272/266 300/284/278 299/271/265
f 139/273/267 120/285/279 140/272/266
f 138/274/268 119/286/280 139/273/267
f 138/274/268 117/287/281 118/288/282
f 136/276/270 117/287/281 137/275/269
f 136/276/270 115/289/283 116/290/284
f 78/291/285 135/292/286 79/72/57
f 133/68/48 313/293/221 319/277/271
f 125/279/273 114/294/287 126/204/203
f 124/281/275 113/295/288 125/279/273
f 123/280/274 112/296/289 124/281/275
f 122/282/276 111/297/290 123/280/274
f 121/283/277 110/298/291 122/282/276
f 69/64/44 121/283/277 70/65/45
f 300/284/278 100/299/292 304/300/293
f 119/286/280 100/299/292 120/285/279
f 118/288/282 99/301/294 119/286/280
f 117/287/281 98/302/295 118/288/282
f 117/287/281 96/303/296 97/304/297
f 116/290/284 95/305/298 96/303/296
f 77/92/90 115/289/283 78/291/285
f 114/294/287 305/208/207 301/205/204
f 113/295/288 102/102/102 114/294/287
f 113/295/288 104/106/106 103/100/100
f 111/297/290 104/106/106 112/296/289
f 110/298/291 105/105/105 111/297/290
f 109/306/299 106/107/107 110/298/291
f 68/85/80 109/306/299 69/64/44
f 100/299/292 306/132/132 304/300/293
f 99/301/294 88/115/115 100/299/292
f 98/302/295 89/113/113 99/301/294
f 97/304/297 90/116/116 98/302/295
f 96/303/296 91/118/118 97/304/297
f 96/303/296 93/122/122 92/123/123
f 77/92/90 93/122/122 95/305/298
f 320/307/300 292/206/205 321/308/301
f 323/309/302 293/76/63 294/75/62
f 324/310/303 296/167/167 325/311/304
f 327/312/305 297/194/194 298/236/230
f 328/313/306 300/284/278 329/314/307
f 321/308/301 301/205/204 330/315/308
f 325/311/304 302/180/180 331/316/309
f 331/316/309 297/194/194 326/317/310
f 323/309/302 295/160/160 324/310/303
f 329/314/307 304/300/293 333/318/311
f 332/153/153 305/208/207 303/112/112
f 335/319/312 307/133/133 336/125/125
f 337/127/127 309/89/85 338/320/313
f 339/321/314 309/89/85 310/88/84
f 340/322/315 310/88/84 311/172/172
f 340/322/315 312/187/187 341/323/316
f 343/324/317 312/187/187 314/215/214
f 342/325/318 315/224/223 344/326/319
f 343/324/317 316/244/238 345/327/320
f 344/326/319 317/250/244 346/328/321
f 327/312/305 318/258/252 347/329/322
f 345/327/320 291/264/258 320/307/300
f 346/328/321 299/271/265 328/313/306
f 348/330/323 318/258/252 319/277/271
f 348/330/323 313/293/221 342/331/318
f 333/318/311 306/132/132 335/319/312
f 263/332/324 324/310/303 241/333/325
f 87/334/326 336/125/125 270/335/327
f 127/336/328 342/331/318 199/337/329
f 141/338/330 321/308/301 85/339/331
f 263/332/324 322/154/154 323/309/302
f 241/333/325 325/311/304 83/97/97
f 170/340/332 326/317/310 327/312/305
f 134/341/333 329/314/307 86/342/334
f 85/339/331 330/315/308 108/343/335
f 241/333/325 352/344/336 263/332/324
f 83/97/97 331/316/309 214/345/337
f 214/345/337 326/317/310 82/346/338
f 284/347/339 322/154/154 84/348/340
f 86/342/334 333/318/311 94/349/341
f 284/347/339 334/207/206 332/153/153
f 270/335/327 364/350/342 87/334/326
f 270/335/327 337/127/127 256/351/343
f 256/351/343 338/320/313 248/352/344
f 234/353/345 338/320/313 339/321/314
f 221/354/346 339/321/314 340/322/315
f 221/354/346 341/323/316 207/355/347
f 199/337/329 377/356/348 127/336/328
f 185/357/349 341/323/316 343/324/317
f 177/358/350 342/325/318 344/326/319
f 185/357/349 345/327/320 163/359/351
f 177/358/350 346/328/321 155/360/352
f 170/340/332 347/329/322 148/361/353
f 141/338/330 345/327/320 320/307/300
f 134/341/333 346/328/321 328/313/306
f 127/336/328 347/329/322 348/330/323
f 108/343/335 334/207/206 101/362/354
f 94/349/341 335/319/312 87/334/326
f 371/363/355 366/364/356 350/365/357
f 207/355/347 372/366/358 370/367/359
f 214/345/337 355/368/360 360/98/98
f 199/369/329 373/370/361 371/371/355
f 163/359/351 372/366/358 185/357/349
f 84/348/340 361/372/362 284/347/339
f 155/360/352 373/370/361 177/358/350
f 94/349/341 358/373/363 86/342/334
f 148/361/353 356/374/364 170/340/332
f 101/362/354 361/372/362 363/375/365
f 141/338/330 374/376/366 163/359/351
f 85/339/331 349/377/367 141/338/330
f 155/360/352 357/378/368 375/379/369
f 84/348/340 352/344/336 351/380/370
f 148/361/353 377/356/348 376/381/371
f 256/351/343 365/382/372 270/335/327
f 83/97/97 353/383/373 241/333/325
f 46/47/29 43/44/25 44/58/25
f 248/352/344 366/364/356 256/351/343
f 82/346/338 356/374/364 355/368/360
f 108/343/335 363/375/365 359/384/374
f 234/353/345 367/385/375 248/352/344
f 134/341/333 358/373/363 357/378/368
f 94/349/341 364/350/342 362/386/376
f 221/354/346 368/387/377 234/353/345
f 108/343/335 350/365/357 85/339/331
f 221/354/346 370/367/359 369/388/378
f 16/16/11 13/13/7 14/82/7
f 58/14/38 1/3/1 57/389/38
f 102/102/102 303/112/112 305/208/207
f 48/50/91 78/291/285 50/52/56
f 2/1/1 4/4/2 3/2/2
f 4/4/2 6/6/3 5/5/3
f 6/6/3 8/8/4 7/7/4
f 8/8/4 10/10/5 9/9/5
f 10/10/5 12/12/6 11/11/6
f 12/12/6 14/82/7 13/13/7
f 58/14/8 198/203/95 59/15/9
f 16/16/11 18/19/12 17/17/12
f 18/19/12 20/21/13 19/20/13
f 20/21/13 22/23/14 21/22/14
f 22/23/14 24/25/15 23/24/15
f 24/25/15 26/27/16 25/26/16
f 26/27/16 28/29/17 27/28/17
f 28/29/17 30/31/18 29/30/18
f 30/31/18 32/33/19 31/32/19
f 32/33/19 34/35/20 33/34/20
f 34/35/20 36/37/21 35/36/21
f 36/37/21 38/39/22 37/38/22
f 38/39/22 40/41/23 39/40/23
f 40/41/23 42/43/24 41/42/24
f 42/43/24 44/58/25 43/44/25
f 16/16/26 14/82/74 65/45/27
f 46/47/29 48/50/30 47/48/30
f 48/50/30 50/52/31 49/51/31
f 50/52/31 52/54/32 51/53/32
f 52/54/32 54/56/33 53/55/33
f 54/56/33 56/60/34 55/57/34
f 44/58/35 75/69/50 76/59/36
f 56/60/34 58/95/38 57/61/38
f 57/389/39 1/3/39 3/2/39
f 3/2/39 5/5/39 11/11/39
f 5/5/39 7/7/39 11/11/39
f 7/7/39 9/9/39 11/11/39
f 11/11/39 13/13/39 15/18/39
f 15/18/39 17/17/39 11/11/39
f 17/17/39 19/20/39 11/11/39
f 19/20/39 21/22/39 23/24/39
f 23/24/39 25/26/39 27/28/39
f 27/28/39 29/30/39 31/32/39
f 31/32/39 33/34/39 35/36/39
f 35/36/39 37/38/39 39/40/39
f 39/40/39 41/42/39 35/36/39
f 41/42/39 43/44/39 35/36/39
f 43/44/39 45/390/39 47/391/39
f 47/391/39 49/392/39 51/393/39
f 51/393/39 53/394/39 3/2/39
f 53/394/39 55/395/39 3/2/39
f 55/395/39 57/389/39 3/2/39
f 19/20/39 23/24/39 35/36/39
f 23/24/39 27/28/39 35/36/39
f 27/28/39 31/32/39 35/36/39
f 43/44/39 47/391/39 35/36/39
f 47/391/39 51/393/39 35/36/39
f 3/2/39 11/11/39 19/20/39
f 51/393/39 3/2/39 35/36/39
f 10/10/40 8/8/92 62/62/41
f 26/27/43 24/25/93 69/64/44
f 132/66/46 204/196/196 205/67/47
f 42/43/49 255/93/94 75/69/50
f 18/19/51 16/16/26 66/46/28
f 34/35/53 206/96/96 72/71/54
f 50/52/56 78/291/285 79/72/57
f 12/12/59 10/10/40 63/63/42
f 283/74/61 269/134/134 294/75/62
f 28/29/64 26/27/43 70/65/45
f 4/4/66 2/1/10 59/15/9
f 20/21/68 18/19/51 277/70/52
f 36/37/55 72/71/54 73/80/70
f 52/54/58 79/72/57 80/81/72
f 14/82/74 12/12/59 64/73/60
f 30/31/75 28/29/64 71/77/65
f 6/6/77 4/4/66 60/78/67
f 22/23/79 20/21/68 67/79/69
f 38/39/71 73/80/70 74/86/81
f 254/87/83 240/161/161 310/88/84
f 54/56/73 80/81/72 81/90/86
f 30/31/75 162/83/76 184/91/88
f 46/47/37 76/59/36 77/92/90
f 8/8/92 6/6/77 61/84/78
f 24/25/93 22/23/79 68/85/80
f 40/41/82 74/86/81 255/93/94
f 56/60/87 81/90/86 198/94/95
f 32/33/89 184/91/88 206/96/96
f 83/97/97 214/345/337 360/98/98
f 103/100/100 289/104/104 290/101/101
f 103/100/100 104/106/106 288/103/103
f 105/105/105 287/108/108 288/103/103
f 106/107/107 286/110/110 287/108/108
f 107/109/109 285/111/111 286/110/110
f 68/85/80 67/79/69 285/111/111
f 303/112/112 290/101/101 283/74/61
f 89/113/113 275/117/117 276/114/114
f 90/116/116 274/119/119 275/117/117
f 91/118/118 273/121/121 274/119/119
f 91/118/118 92/123/123 272/120/120
f 93/122/122 271/124/124 272/120/120
f 271/124/124 93/122/122 76/59/36
f 336/125/125 307/133/133 308/126/126
f 290/101/101 289/104/104 282/128/128
f 288/103/103 281/129/129 282/128/128
f 287/108/108 280/130/130 281/129/129
f 286/110/110 279/131/131 280/130/130
f 285/111/111 278/139/139 279/131/131
f 277/70/52 278/139/139 285/111/111
f 306/132/132 88/115/115 276/114/114
f 282/128/128 268/135/135 269/134/134
f 281/129/129 267/136/136 268/135/135
f 280/130/130 266/138/138 267/136/136
f 280/130/130 279/131/131 265/137/137
f 278/139/139 264/140/140 265/137/137
f 277/70/52 66/46/28 264/140/140
f 276/114/114 262/141/141 308/126/126
f 275/117/117 261/142/142 262/141/141
f 274/119/119 260/144/144 261/142/142
f 274/119/119 273/121/121 259/143/143
f 272/120/120 258/146/146 259/143/143
f 272/120/120 271/124/124 257/145/145
f 255/93/94 257/145/145 271/124/124
f 262/141/141 254/87/83 309/89/85
f 268/135/135 246/148/148 247/147/147
f 267/136/136 245/149/149 246/148/148
f 266/138/138 244/150/150 245/149/149
f 265/137/137 243/151/151 244/150/150
f 264/140/140 242/152/152 243/151/151
f 264/140/140 66/46/28 65/45/27
f 332/153/153 303/112/112 293/76/63
f 261/142/142 253/155/155 254/87/83
f 260/144/144 252/157/157 253/155/155
f 260/144/144 259/143/143 251/156/156
f 258/146/146 250/158/158 251/156/156
f 257/145/145 249/159/159 250/158/158
f 255/93/94 74/86/81 249/159/159
f 294/75/62 269/134/134 247/147/147
f 253/155/155 239/162/162 240/161/161
f 252/157/157 238/163/163 239/162/162
f 251/156/156 237/164/164 238/163/163
f 250/158/158 236/165/165 237/164/164
f 249/159/159 235/179/179 236/165/165
f 73/80/70 235/179/179 249/159/159
f 295/160/160 247/147/147 233/166/166
f 247/147/147 246/148/148 232/168/168
f 246/148/148 245/149/149 231/169/169
f 244/150/150 230/171/171 231/169/169
f 244/150/150 243/151/151 229/170/170
f 242/152/152 228/186/186 229/170/170
f 64/73/60 228/186/186 242/152/152
f 240/161/161 227/173/173 311/172/172
f 239/162/162 226/174/174 227/173/173
f 238/163/163 225/176/176 226/174/174
f 238/163/163 237/164/164 224/175/175
f 236/165/165 223/178/178 224/175/175
f 236/165/165 235/179/179 222/177/177
f 73/80/70 72/71/54 222/177/177
f 233/166/166 220/181/181 302/180/180
f 232/168/168 219/183/183 220/181/181
f 232/168/168 231/169/169 218/182/182
f 230/171/171 217/185/185 218/182/182
f 230/171/171 229/170/170 216/184/184
f 228/186/186 215/213/212 216/184/184
f 63/63/42 215/213/212 228/186/186
f 227/173/173 213/188/188 312/187/187
f 226/174/174 212/190/190 213/188/188
f 226/174/174 225/176/176 211/189/189
f 224/175/175 210/192/192 211/189/189
f 224/175/175 223/178/178 209/191/191
f 223/178/178 222/177/177 208/193/193
f 206/96/96 208/193/193 222/177/177
f 220/181/181 197/209/208 297/194/194
f 131/195/195 203/198/198 204/196/196
f 130/197/197 202/200/200 203/198/198
f 129/199/199 201/202/202 202/200/200
f 128/201/201 200/396/227 201/202/202
f 198/203/95 200/396/227 128/201/201
f 126/204/203 114/294/287 301/205/204
f 334/207/206 330/315/308 301/205/204
f 219/183/183 196/210/209 197/209/208
f 218/182/182 195/211/210 196/210/209
f 217/185/185 194/212/211 195/211/210
f 216/184/184 193/214/213 194/212/211
f 215/213/212 192/241/235 193/214/213
f 62/62/41 192/241/235 215/213/212
f 213/188/188 191/216/215 314/215/214
f 212/190/190 190/217/216 191/216/215
f 211/189/189 189/218/217 190/217/216
f 210/192/192 188/220/219 189/218/217
f 210/192/192 209/191/191 187/219/218
f 208/193/193 186/221/220 187/219/218
f 206/96/96 184/91/88 186/221/220
f 313/222/221 205/225/47 183/223/222
f 205/225/47 204/227/196 182/226/224
f 204/227/196 203/230/198 181/228/225
f 202/229/200 180/232/226 181/228/225
f 201/231/202 179/234/228 180/232/226
f 200/233/227 178/235/229 179/234/228
f 198/94/95 81/90/86 178/235/229
f 197/209/208 176/237/231 298/236/230
f 196/210/209 175/238/232 176/237/231
f 195/211/210 174/239/233 175/238/232
f 194/212/211 173/240/234 174/239/233
f 193/214/213 172/242/236 173/240/234
f 192/241/235 171/262/256 172/242/236
f 61/84/78 171/262/256 192/241/235
f 314/215/214 191/216/215 169/243/237
f 191/216/215 190/217/216 168/245/239
f 190/217/216 189/218/217 167/246/240
f 189/218/217 188/220/219 166/247/241
f 188/220/219 187/219/218 165/248/242
f 187/219/218 186/221/220 164/249/243
f 184/91/88 162/83/76 164/249/243
f 183/223/222 161/251/245 317/250/244
f 182/226/224 160/252/246 161/251/245
f 181/228/225 159/253/247 160/252/246
f 180/232/226 158/254/248 159/253/247
f 179/234/228 157/256/250 158/254/248
f 179/234/228 178/235/229 156/255/249
f 80/81/72 156/255/249 178/235/229
f 298/236/230 176/237/231 154/257/251
f 176/237/231 175/238/232 153/259/253
f 174/239/233 152/260/254 153/259/253
f 173/240/234 151/261/255 152/260/254
f 172/242/236 150/263/257 151/261/255
f 171/262/256 149/278/272 150/263/257
f 60/78/67 149/278/272 171/262/256
f 169/243/237 147/265/259 291/264/258
f 168/245/239 146/266/260 147/265/259
f 167/246/240 145/268/262 146/266/260
f 167/246/240 166/247/241 144/267/261
f 165/248/242 143/270/264 144/267/261
f 165/248/242 164/249/243 142/269/263
f 164/249/243 162/83/76 71/77/65
f 161/251/245 140/272/266 299/271/265
f 160/252/246 139/273/267 140/272/266
f 159/253/247 138/274/268 139/273/267
f 158/254/248 137/275/269 138/274/268
f 157/256/250 136/276/270 137/275/269
f 156/255/249 135/292/286 136/276/270
f 79/72/57 135/292/286 156/255/249
f 154/257/251 133/68/48 319/277/271
f 154/257/251 153/259/253 132/66/46
f 152/260/254 131/195/195 132/66/46
f 151/261/255 130/197/197 131/195/195
f 150/263/257 129/199/199 130/197/197
f 149/278/272 128/201/201 129/199/199
f 60/78/67 59/15/9 128/201/201
f 291/264/258 147/265/259 126/204/203
f 147/265/259 146/266/260 125/279/273
f 145/268/262 124/281/275 125/279/273
f 145/268/262 144/267/261 123/280/274
f 143/270/264 122/282/276 123/280/274
f 142/269/263 121/283/277 122/282/276
f 71/77/65 70/65/45 121/283/277
f 140/272/266 120/285/279 300/284/278
f 139/273/267 119/286/280 120/285/279
f 138/274/268 118/288/282 119/286/280
f 138/274/268 137/275/269 117/287/281
f 136/276/270 116/290/284 117/287/281
f 136/276/270 135/292/286 115/289/283
f 78/291/285 115/289/283 135/292/286
f 133/68/48 205/67/47 313/293/221
f 125/279/273 113/295/288 114/294/287
f 124/281/275 112/296/289 113/295/288
f 123/280/274 111/297/290 112/296/289
f 122/282/276 110/298/291 111/297/290
f 121/283/277 109/306/299 110/298/291
f 69/64/44 109/306/299 121/283/277
f 300/284/278 120/285/279 100/299/292
f 119/286/280 99/301/294 100/299/292
f 118/288/282 98/302/295 99/301/294
f 117/287/281 97/304/297 98/302/295
f 117/287/281 116/290/284 96/303/296
f 116/290/284 115/289/283 95/305/298
f 77/92/90 95/305/298 115/289/283
f 114/294/287 102/102/102 305/208/207
f 113/295/288 103/100/100 102/102/102
f 113/295/288 112/296/289 104/106/106
f 111/297/290 105/105/105 104/106/106
f 110/298/291 106/107/107 105/105/105
f 109/306/299 107/109/109 106/107/107
f 68/85/80 107/109/109 109/306/299
f 100/299/292 88/115/115 306/132/132
f 99/301/294 89/113/113 88/115/115
f 98/302/295 90/116/116 89/113/113
f 97/304/297 91/118/118 90/116/116
f 96/303/296 92/123/123 91/118/118
f 96/303/296 95/305/298 93/122/122
f 77/92/90 76/59/36 93/122/122
f 320/307/300 291/264/258 292/206/205
f 323/309/302 322/154/154 293/76/63
f 324/310/303 295/160/160 296/167/167
f 327/312/305 326/317/310 297/194/194
f 328/313/306 299/271/265 300/284/278
f 321/308/301 292/206/205 301/205/204
f 325/311/304 296/167/167 302/180/180
f 331/316/309 302/180/180 297/194/194
f 323/309/302 294/75/62 295/160/160
f 329/314/307 300/284/278 304/300/293
f 332/153/153 334/207/206 305/208/207
f 335/319/312 306/132/132 307/133/133
f 337/127/127 308/126/126 309/89/85
f 339/321/314 338/320/313 309/89/85
f 340/322/315 339/321/314 310/88/84
f 340/322/315 311/172/172 312/187/187
f 343/324/317 341/323/316 312/187/187
f 342/325/318 313/222/221 315/224/223
f 343/324/317 314/215/214 316/244/238
f 344/326/319 315/224/223 317/250/244
f 327/312/305 298/236/230 318/258/252
f 345/327/320 316/244/238 291/264/258
f 346/328/321 317/250/244 299/271/265
f 348/330/323 347/329/322 318/258/252
f 348/330/323 319/277/271 313/293/221
f 333/318/311 304/300/293 306/132/132
f 263/332/324 323/309/302 324/310/303
f 87/334/326 335/319/312 336/125/125
f 127/336/328 348/330/323 342/331/318
f 141/338/330 320/307/300 321/308/301
f 263/332/324 84/348/340 322/154/154
f 241/333/325 324/310/303 325/311/304
f 170/340/332 82/346/338 326/317/310
f 134/341/333 328/313/306 329/314/307
f 85/339/331 321/308/301 330/315/308
f 241/333/325 353/383/373 352/344/336
f 83/97/97 325/311/304 331/316/309
f 214/345/337 331/316/309 326/317/310
f 284/347/339 332/153/153 322/154/154
f 86/342/334 329/314/307 333/318/311
f 284/347/339 101/362/354 334/207/206
f 270/335/327 365/382/372 364/350/342
f 270/335/327 336/125/125 337/127/127
f 256/351/343 337/127/127 338/320/313
f 234/353/345 248/352/344 338/320/313
f 221/354/346 234/353/345 339/321/314
f 221/354/346 340/322/315 341/323/316
f 199/337/329 371/363/355 377/356/348
f 185/357/349 207/355/347 341/323/316
f 177/358/350 199/369/329 342/325/318
f 185/357/349 343/324/317 345/327/320
f 177/358/350 344/326/319 346/328/321
f 170/340/332 327/312/305 347/329/322
f 141/338/330 163/359/351 345/327/320
f 134/341/333 155/360/352 346/328/321
f 127/336/328 148/361/353 347/329/322
f 108/343/335 330/315/308 334/207/206
f 94/349/341 333/318/311 335/319/312
f 376/381/371 377/356/348 371/363/355
f 371/363/355 373/397/361 375/398/369
f 375/398/369 357/399/368 358/400/363
f 358/400/363 362/401/376 364/402/342
f 364/402/342 365/382/372 358/400/363
f 365/382/372 366/364/356 358/400/363
f 366/364/356 367/385/375 368/387/377
f 368/387/377 369/388/378 370/367/359
f 370/367/359 372/366/358 374/376/366
f 374/376/366 349/377/367 370/367/359
f 349/377/367 350/365/357 370/367/359
f 350/365/357 359/384/374 351/380/370
f 359/384/374 363/375/365 351/380/370
f 363/375/365 361/372/362 351/380/370
f 351/380/370 352/344/336 353/383/373
f 353/383/373 354/99/99 351/380/370
f 354/99/99 360/98/98 351/380/370
f 360/98/98 355/368/360 356/374/364
f 356/374/364 376/381/371 360/98/98
f 376/381/371 371/363/355 360/98/98
f 371/363/355 375/398/369 366/364/356
f 375/398/369 358/400/363 366/364/356
f 366/364/356 368/387/377 350/365/357
f 368/387/377 370/367/359 350/365/357
f 350/365/357 351/380/370 360/98/98
f 360/98/98 371/363/355 350/365/357
f 207/355/347 185/357/349 372/366/358
f 214/345/337 82/346/338 355/368/360
f 199/369/329 177/358/350 373/370/361
f 163/359/351 374/376/366 372/366/358
f 84/348/340 351/380/370 361/372/362
f 155/360/352 375/379/369 373/370/361
f 94/349/341 362/386/376 358/373/363
f 148/361/353 376/381/371 356/374/364
f 101/362/354 284/347/339 361/372/362
f 141/338/330 349/377/367 374/376/366
f 85/339/331 350/365/357 349/377/367
f 155/360/352 134/341/333 357/378/368
f 84/348/340 263/332/324 352/344/336
f 148/361/353 127/336/328 377/356/348
f 256/351/343 366/364/356 365/382/372
f 83/97/97 354/99/99 353/383/373
f 46/47/29 45/49/29 43/44/25
f 248/352/344 367/385/375 366/364/356
f 82/346/338 170/340/332 356/374/364
f 108/343/335 101/362/354 363/375/365
f 234/353/345 368/387/377 367/385/375
f 134/341/333 86/342/334 358/373/363
f 94/349/341 87/334/326 364/350/342
f 221/354/346 369/388/378 368/387/377
f 108/343/335 359/384/374 350/365/357
f 221/354/346 207/355/347 370/367/359
f 16/16/11 15/18/11 13/13/7
f 58/14/38 2/1/1 1/3/1
f 102/102/102 290/101/101 303/112/112
f 48/50/91 77/92/90 78/291/285
