# Blender 5.2.0 LTS
# www.blender.org
o Circle
v 0.499999 -0.000000 -0.006005
v 0.365576 0.072718 -0.006005
v 0.294404 0.121946 -0.006005
v 0.309920 0.207082 -0.006005
v 0.353553 0.353553 -0.006005
v 0.207082 0.309920 -0.006005
v 0.121946 0.294404 -0.006005
v 0.072718 0.365576 -0.006005
v 0.000000 0.499999 -0.006005
v -0.072718 0.365576 -0.006005
v -0.121946 0.294404 -0.006005
v -0.207082 0.309920 -0.006005
v -0.353553 0.353553 -0.006005
v -0.309920 0.207082 -0.006005
v -0.294404 0.121946 -0.006005
v -0.365576 0.072718 -0.006005
v -0.499999 0.000000 -0.006005
v -0.365576 -0.072718 -0.006005
v -0.294404 -0.121946 -0.006005
v -0.309920 -0.207082 -0.006005
v -0.353553 -0.353553 -0.006005
v -0.207082 -0.309920 -0.006005
v -0.121946 -0.294404 -0.006005
v -0.072718 -0.365576 -0.006005
v -0.000000 -0.499999 -0.006005
v 0.072718 -0.365576 -0.006005
v 0.121946 -0.294404 -0.006005
v 0.207082 -0.309920 -0.006005
v 0.353553 -0.353553 -0.006005
v 0.309920 -0.207082 -0.006005
v 0.294404 -0.121946 -0.006005
v 0.365576 -0.072718 -0.006005
v 0.217742 0.043312 -0.006005
v 0.222008 -0.000000 -0.006005
v 0.205108 0.084959 -0.006005
v 0.184593 0.123341 -0.006005
v 0.156983 0.156983 -0.006005
v 0.123341 0.184593 -0.006005
v 0.084959 0.205108 -0.006005
v 0.043312 0.217742 -0.006005
v 0.000000 0.222008 -0.006005
v -0.043312 0.217742 -0.006005
v -0.084959 0.205108 -0.006005
v -0.123341 0.184593 -0.006005
v -0.156983 0.156983 -0.006005
v -0.184593 0.123341 -0.006005
v -0.205108 0.084959 -0.006005
v -0.217742 0.043312 -0.006005
v -0.222008 0.000000 -0.006005
v -0.217742 -0.043312 -0.006005
v -0.205108 -0.084959 -0.006005
v -0.184593 -0.123341 -0.006005
v -0.156983 -0.156983 -0.006005
v -0.123341 -0.184593 -0.006005
v -0.084959 -0.205108 -0.006005
v -0.043312 -0.217742 -0.006005
v -0.000000 -0.222008 -0.006005
v 0.043312 -0.217742 -0.006005
v 0.084959 -0.205108 -0.006005
v 0.123341 -0.184593 -0.006005
v 0.156983 -0.156983 -0.006005
v 0.184593 -0.123341 -0.006005
v 0.205108 -0.084959 -0.006005
v 0.217742 -0.043312 -0.006005
v 0.240662 0.047871 -0.006005
v 0.245376 -0.000000 -0.006005
v 0.226698 0.093902 -0.006005
v 0.204023 0.136324 -0.006005
v 0.173507 0.173507 -0.006005
v 0.136324 0.204023 -0.006005
v 0.093902 0.226698 -0.006005
v 0.047871 0.240662 -0.006005
v 0.000000 0.245376 -0.006005
v -0.047871 0.240662 -0.006005
v -0.093901 0.226698 -0.006005
v -0.136324 0.204023 -0.006005
v -0.173507 0.173507 -0.006005
v -0.204023 0.136324 -0.006005
v -0.226698 0.093902 -0.006005
v -0.240662 0.047871 -0.006005
v -0.245376 0.000000 -0.006005
v -0.240662 -0.047871 -0.006005
v -0.226698 -0.093902 -0.006005
v -0.204023 -0.136324 -0.006005
v -0.173507 -0.173507 -0.006005
v -0.136324 -0.204023 -0.006005
v -0.093902 -0.226698 -0.006005
v -0.047871 -0.240662 -0.006005
v -0.000000 -0.245376 -0.006005
v 0.047871 -0.240662 -0.006005
v 0.093902 -0.226698 -0.006005
v 0.136324 -0.204023 -0.006005
v 0.173507 -0.173507 -0.006005
v 0.204023 -0.136324 -0.006005
v 0.226698 -0.093902 -0.006005
v 0.240662 -0.047871 -0.006005
v 0.240662 0.047871 0.006005
v 0.245376 -0.000000 0.006005
v 0.226698 0.093902 0.006005
v 0.204023 0.136324 0.006005
v 0.173507 0.173507 0.006005
v 0.136324 0.204023 0.006005
v 0.093902 0.226698 0.006005
v 0.047871 0.240662 0.006005
v 0.000000 0.245376 0.006005
v -0.047871 0.240662 0.006005
v -0.093901 0.226698 0.006005
v -0.136324 0.204023 0.006005
v -0.173507 0.173507 0.006005
v -0.204023 0.136324 0.006005
v -0.226698 0.093902 0.006005
v -0.240662 0.047871 0.006005
v -0.245376 0.000000 0.006005
v -0.240662 -0.047871 0.006005
v -0.226698 -0.093902 0.006005
v -0.204023 -0.136324 0.006005
v -0.173507 -0.173507 0.006005
v -0.136324 -0.204023 0.006005
v -0.093902 -0.226698 0.006005
v -0.047871 -0.240662 0.006005
v -0.000000 -0.245376 0.006005
v 0.047871 -0.240662 0.006005
v 0.093902 -0.226698 0.006005
v 0.136324 -0.204023 0.006005
v 0.173507 -0.173507 0.006005
v 0.204023 -0.136324 0.006005
v 0.226698 -0.093902 0.006005
v 0.240662 -0.047871 0.006005
v 0.365576 0.072718 0.006005
v 0.499999 -0.000000 0.006005
v 0.294404 0.121946 0.006005
v 0.309920 0.207082 0.006005
v 0.353553 0.353553 0.006005
v 0.207082 0.309920 0.006005
v 0.121946 0.294404 0.006005
v 0.072718 0.365576 0.006005
v 0.000000 0.499999 0.006005
v -0.072718 0.365576 0.006005
v -0.121946 0.294404 0.006005
v -0.207082 0.309920 0.006005
v -0.353553 0.353553 0.006005
v -0.309920 0.207082 0.006005
v -0.294404 0.121946 0.006005
v -0.365576 0.072718 0.006005
v -0.499999 0.000000 0.006005
v -0.365576 -0.072718 0.006005
v -0.294404 -0.121946 0.006005
v -0.309920 -0.207082 0.006005
v -0.353553 -0.353553 0.006005
v -0.207082 -0.309920 0.006005
v -0.121946 -0.294404 0.006005
v -0.072718 -0.365576 0.006005
v -0.000000 -0.499999 0.006005
v 0.072718 -0.365576 0.006005
v 0.121946 -0.294404 0.006005
v 0.207082 -0.309920 0.006005
v 0.353553 -0.353553 0.006005
v 0.309920 -0.207082 0.006005
v 0.294404 -0.121946 0.006005
v 0.365576 -0.072718 0.006005
v 0.217742 0.043312 0.006005
v 0.222008 -0.000000 0.006005
v 0.205108 0.084959 0.006005
v 0.184593 0.123341 0.006005
v 0.156983 0.156983 0.006005
v 0.123341 0.184593 0.006005
v 0.084959 0.205108 0.006005
v 0.043312 0.217742 0.006005
v 0.000000 0.222008 0.006005
v -0.043312 0.217742 0.006005
v -0.084959 0.205108 0.006005
v -0.123341 0.184593 0.006005
v -0.156983 0.156983 0.006005
v -0.184593 0.123341 0.006005
v -0.205108 0.084959 0.006005
v -0.217742 0.043312 0.006005
v -0.222008 0.000000 0.006005
v -0.217742 -0.043312 0.006005
v -0.205108 -0.084959 0.006005
v -0.184593 -0.123341 0.006005
v -0.156983 -0.156983 0.006005
v -0.123341 -0.184593 0.006005
v -0.084959 -0.205108 0.006005
v -0.043312 -0.217742 0.006005
v -0.000000 -0.222008 0.006005
v 0.043312 -0.217742 0.006005
v 0.084959 -0.205108 0.006005
v 0.123341 -0.184593 0.006005
v 0.156983 -0.156983 0.006005
v 0.184593 -0.123341 0.006005
v 0.205108 -0.084959 0.006005
v 0.217742 -0.043312 0.006005
s 1
f 59 51 43
f 2 66 65
f 3 65 67
f 68 3 67
f 69 4 68
f 6 69 70
f 7 70 71
f 72 7 71
f 73 8 72
f 10 73 74
f 11 74 75
f 76 11 75
f 77 12 76
f 14 77 78
f 15 78 79
f 80 15 79
f 81 16 80
f 18 81 82
f 19 82 83
f 84 19 83
f 85 20 84
f 22 85 86
f 23 86 87
f 88 23 87
f 89 24 88
f 26 89 90
f 27 90 91
f 92 27 91
f 93 28 92
f 30 93 94
f 31 94 95
f 96 31 95
f 66 32 96
f 177 185 162
f 98 129 97
f 97 131 99
f 100 131 132
f 101 132 133
f 101 134 102
f 102 135 103
f 104 135 136
f 105 136 137
f 105 138 106
f 106 139 107
f 108 139 140
f 109 140 141
f 109 142 110
f 110 143 111
f 112 143 144
f 113 144 145
f 113 146 114
f 114 147 115
f 116 147 148
f 117 148 149
f 117 150 118
f 118 151 119
f 120 151 152
f 121 152 153
f 121 154 122
f 122 155 123
f 124 155 156
f 125 156 157
f 125 158 126
f 126 159 127
f 128 159 160
f 98 160 130
f 91 124 92
f 66 97 65
f 43 170 42
f 23 150 22
f 92 125 93
f 65 99 67
f 44 171 43
f 24 151 23
f 93 126 94
f 67 100 68
f 45 172 44
f 25 152 24
f 94 127 95
f 69 100 101
f 46 173 45
f 26 153 25
f 95 128 96
f 70 101 102
f 47 174 46
f 27 154 26
f 96 98 66
f 70 103 71
f 48 175 47
f 28 155 27
f 2 130 1
f 71 104 72
f 49 176 48
f 29 156 28
f 3 129 2
f 72 105 73
f 50 177 49
f 29 158 157
f 4 131 3
f 73 106 74
f 51 178 50
f 31 158 30
f 5 132 4
f 74 107 75
f 52 179 51
f 32 159 31
f 6 133 5
f 75 108 76
f 53 180 52
f 1 160 32
f 7 134 6
f 77 108 109
f 54 181 53
f 8 135 7
f 77 110 78
f 55 182 54
f 9 136 8
f 78 111 79
f 56 183 55
f 10 137 9
f 79 112 80
f 57 184 56
f 11 138 10
f 80 113 81
f 58 185 57
f 12 139 11
f 81 114 82
f 59 186 58
f 13 140 12
f 82 115 83
f 60 187 59
f 33 162 34
f 14 141 13
f 83 116 84
f 61 188 60
f 35 161 33
f 15 142 14
f 84 117 85
f 62 189 61
f 36 163 35
f 15 144 143
f 85 118 86
f 63 190 62
f 37 164 36
f 17 144 16
f 86 119 87
f 64 191 63
f 38 165 37
f 18 145 17
f 87 120 88
f 34 192 64
f 38 167 166
f 19 146 18
f 88 121 89
f 40 167 39
f 20 147 19
f 89 122 90
f 40 169 168
f 20 149 148
f 90 123 91
f 42 169 41
f 21 150 149
f 35 33 34
f 34 64 63
f 63 62 59
f 62 61 59
f 61 60 59
f 59 58 57
f 57 56 55
f 55 54 53
f 53 52 51
f 51 50 49
f 49 48 47
f 47 46 45
f 45 44 43
f 43 42 41
f 41 40 39
f 39 38 37
f 37 36 35
f 35 34 63
f 59 57 51
f 57 55 51
f 55 53 51
f 51 49 47
f 47 45 43
f 43 41 39
f 39 37 43
f 37 35 43
f 35 63 59
f 51 47 43
f 35 59 43
f 2 1 66
f 3 2 65
f 68 4 3
f 69 5 4
f 6 5 69
f 7 6 70
f 72 8 7
f 73 9 8
f 10 9 73
f 11 10 74
f 76 12 11
f 77 13 12
f 14 13 77
f 15 14 78
f 80 16 15
f 81 17 16
f 18 17 81
f 19 18 82
f 84 20 19
f 85 21 20
f 22 21 85
f 23 22 86
f 88 24 23
f 89 25 24
f 26 25 89
f 27 26 90
f 92 28 27
f 93 29 28
f 30 29 93
f 31 30 94
f 96 32 31
f 66 1 32
f 162 161 163
f 163 164 165
f 165 166 169
f 166 167 169
f 167 168 169
f 169 170 171
f 171 172 173
f 173 174 175
f 175 176 177
f 177 178 179
f 179 180 181
f 181 182 183
f 183 184 185
f 185 186 187
f 187 188 189
f 189 190 191
f 191 192 162
f 162 163 165
f 169 171 177
f 171 173 177
f 173 175 177
f 177 179 185
f 179 181 185
f 181 183 185
f 185 187 189
f 189 191 185
f 191 162 185
f 162 165 177
f 165 169 177
f 98 130 129
f 97 129 131
f 100 99 131
f 101 100 132
f 101 133 134
f 102 134 135
f 104 103 135
f 105 104 136
f 105 137 138
f 106 138 139
f 108 107 139
f 109 108 140
f 109 141 142
f 110 142 143
f 112 111 143
f 113 112 144
f 113 145 146
f 114 146 147
f 116 115 147
f 117 116 148
f 117 149 150
f 118 150 151
f 120 119 151
f 121 120 152
f 121 153 154
f 122 154 155
f 124 123 155
f 125 124 156
f 125 157 158
f 126 158 159
f 128 127 159
f 98 128 160
f 91 123 124
f 66 98 97
f 43 171 170
f 23 151 150
f 92 124 125
f 65 97 99
f 44 172 171
f 24 152 151
f 93 125 126
f 67 99 100
f 45 173 172
f 25 153 152
f 94 126 127
f 69 68 100
f 46 174 173
f 26 154 153
f 95 127 128
f 70 69 101
f 47 175 174
f 27 155 154
f 96 128 98
f 70 102 103
f 48 176 175
f 28 156 155
f 2 129 130
f 71 103 104
f 49 177 176
f 29 157 156
f 3 131 129
f 72 104 105
f 50 178 177
f 29 30 158
f 4 132 131
f 73 105 106
f 51 179 178
f 31 159 158
f 5 133 132
f 74 106 107
f 52 180 179
f 32 160 159
f 6 134 133
f 75 107 108
f 53 181 180
f 1 130 160
f 7 135 134
f 77 76 108
f 54 182 181
f 8 136 135
f 77 109 110
f 55 183 182
f 9 137 136
f 78 110 111
f 56 184 183
f 10 138 137
f 79 111 112
f 57 185 184
f 11 139 138
f 80 112 113
f 58 186 185
f 12 140 139
f 81 113 114
f 59 187 186
f 13 141 140
f 82 114 115
f 60 188 187
f 33 161 162
f 14 142 141
f 83 115 116
f 61 189 188
f 35 163 161
f 15 143 142
f 84 116 117
f 62 190 189
f 36 164 163
f 15 16 144
f 85 117 118
f 63 191 190
f 37 165 164
f 17 145 144
f 86 118 119
f 64 192 191
f 38 166 165
f 18 146 145
f 87 119 120
f 34 162 192
f 38 39 167
f 19 147 146
f 88 120 121
f 40 168 167
f 20 148 147
f 89 121 122
f 40 41 169
f 20 21 149
f 90 122 123
f 42 170 169
f 21 22 150
